<?xml version="1.0" encoding="utf-8"?>
<!-- Generator: Adobe Illustrator 15.0.0, SVG Export Plug-In . SVG Version: 6.00 Build 0)  -->
<!DOCTYPE svg PUBLIC "-//W3C//DTD SVG 1.1//EN" "http://www.w3.org/Graphics/SVG/1.1/DTD/svg11.dtd">
<svg version="1.1" id="Layer_1" xmlns="http://www.w3.org/2000/svg" xmlns:xlink="http://www.w3.org/1999/xlink" x="0px" y="0px"
	 width="29.756px" height="29.757px" viewBox="0 0 29.756 29.757" enable-background="new 0 0 29.756 29.757" xml:space="preserve">
<g>
	<path fill="#355CAA" d="M14.878,29.757C6.674,29.757,0,23.082,0,14.878S6.674,0,14.878,0s14.878,6.674,14.878,14.878
		S23.082,29.757,14.878,29.757z M14.878,0.75C7.088,0.75,0.75,7.088,0.75,14.878c0,7.791,6.338,14.129,14.128,14.129
		s14.128-6.338,14.128-14.129C29.006,7.088,22.668,0.75,14.878,0.75z"/>
	<path fill="#355CAA" d="M11.95,19.558c-0.115,0-0.229-0.053-0.302-0.153c-0.123-0.166-0.087-0.401,0.08-0.523l5.444-4.003
		l-5.444-4.003c-0.167-0.122-0.203-0.357-0.08-0.523c0.122-0.168,0.358-0.204,0.523-0.08l5.855,4.305
		c0.097,0.07,0.153,0.183,0.153,0.302s-0.057,0.231-0.153,0.302l-5.855,4.305C12.105,19.534,12.027,19.558,11.95,19.558z"/>
</g>
</svg>
