<?xml version="1.0" encoding="utf-8"?>
<!-- Generator: Adobe Illustrator 15.0.0, SVG Export Plug-In . SVG Version: 6.00 Build 0)  -->
<!DOCTYPE svg PUBLIC "-//W3C//DTD SVG 1.1//EN" "http://www.w3.org/Graphics/SVG/1.1/DTD/svg11.dtd">
<svg version="1.1" id="Layer_1" xmlns="http://www.w3.org/2000/svg" xmlns:xlink="http://www.w3.org/1999/xlink" x="0px" y="0px"
	 width="29.756px" height="29.757px" viewBox="0 0 29.756 29.757" enable-background="new 0 0 29.756 29.757" xml:space="preserve">
<g>
	<path fill="#1155CC" d="M14.878,0C6.674,0,0,6.674,0,14.878s6.674,14.878,14.878,14.878s14.878-6.674,14.878-14.878
		S23.082,0,14.878,0z M14.878,29.006c-7.79,0-14.128-6.338-14.128-14.128S7.088,0.75,14.878,0.75s14.128,6.338,14.128,14.128
		S22.668,29.006,14.878,29.006z"/>
	<path fill="#1155CC" d="M14.878,5.413c-5.22,0-9.466,4.246-9.466,9.466s4.246,9.466,9.466,9.466c5.219,0,9.465-4.246,9.465-9.466
		S20.097,5.413,14.878,5.413z M20.343,14.503c-0.033-1.449-0.252-2.816-0.621-4.027c0.668-0.31,1.304-0.683,1.894-1.119
		c1.16,1.413,1.875,3.199,1.959,5.146H20.343z M15.253,6.198c1.481,0.216,2.773,1.692,3.556,3.852
		c-1.122,0.438-2.326,0.684-3.556,0.72V6.198z M14.503,6.198v4.565c-1.229-0.05-2.428-0.309-3.542-0.758
		C11.745,7.869,13.03,6.413,14.503,6.198z M14.503,11.513v2.99h-4.341c0.031-1.365,0.229-2.652,0.563-3.785
		C11.916,11.192,13.193,11.463,14.503,11.513z M14.503,23.559c-1.369-0.199-2.573-1.478-3.366-3.374
		c1.069-0.393,2.208-0.614,3.366-0.647V23.559z M14.503,18.788c-1.249,0.034-2.477,0.272-3.63,0.696
		c-0.421-1.238-0.676-2.682-0.711-4.23h4.341V18.788z M9.412,14.503H6.181c0.085-1.976,0.821-3.784,2.012-5.207
		c0.574,0.433,1.188,0.808,1.838,1.119C9.66,11.635,9.444,13.021,9.412,14.503z M9.412,15.253c0.038,1.644,0.317,3.178,0.781,4.504
		c-0.614,0.272-1.199,0.601-1.75,0.979c-1.333-1.463-2.172-3.376-2.263-5.483H9.412z M10.464,20.458
		c0.477,1.123,1.087,2.063,1.798,2.734c-1.237-0.391-2.35-1.056-3.281-1.915C9.45,20.963,9.945,20.69,10.464,20.458z M15.253,23.559
		v-4.018c1.167,0.046,2.294,0.275,3.352,0.678C17.811,22.097,16.613,23.361,15.253,23.559z M19.272,20.502
		c0.503,0.233,0.986,0.509,1.448,0.823c-0.92,0.836-2.014,1.483-3.227,1.866C18.195,22.53,18.799,21.605,19.272,20.502z
		 M15.253,18.792v-3.538h4.34c-0.036,1.563-0.295,3.02-0.722,4.266C17.729,19.083,16.513,18.838,15.253,18.792z M15.253,14.503
		v-2.984c1.309-0.036,2.591-0.295,3.789-0.756c0.327,1.122,0.52,2.393,0.551,3.74H15.253z M21.109,8.797
		c-0.511,0.372-1.058,0.693-1.632,0.965c-0.496-1.33-1.177-2.436-1.983-3.197C18.881,7.002,20.116,7.781,21.109,8.797z M12.2,6.587
		c-0.785,0.746-1.445,1.816-1.928,3.111C9.719,9.427,9.192,9.107,8.698,8.74C9.666,7.765,10.863,7.021,12.2,6.587z M21.265,20.789
		c-0.545-0.382-1.12-0.71-1.719-0.985c0.473-1.337,0.759-2.887,0.797-4.55h3.231C23.482,17.386,22.625,19.32,21.265,20.789z"/>
</g>
</svg>
